/vscmnt/brussel_pixiu_data/_data_brussel/112/vsc11236/PredSimResults/SUBJ07mtu3D/worker8.mot
version=1
nRows=4
nColumns=50
inDegrees=yes
endheader
                time	         pelvis_tilt	         pelvis_list	     pelvis_rotation	           pelvis_tx	           pelvis_ty	           pelvis_tz	       hip_flexion_r	     hip_adduction_r	      hip_rotation_r	        knee_angle_r	       ankle_angle_r	         mtp_angle_r	       hip_flexion_l	     hip_adduction_l	      hip_rotation_l	        knee_angle_l	       ankle_angle_l	         mtp_angle_l	    lumbar_extension	      lumbar_bending	     lumbar_rotation	 ercspn_r/activation	 intobl_r/activation	 extobl_r/activation	    abd_r/activation	    add_r/activation	hamstrings_r/activation	bifemsh_r/activation	glut_max_r/activation	iliopsoas_r/activation	rect_fem_r/activation	  vasti_r/activation	gastroc_r/activation	 soleus_r/activation	tib_ant_r/activation	 ercspn_l/activation	 intobl_l/activation	 extobl_l/activation	    abd_l/activation	    add_l/activation	hamstrings_l/activation	bifemsh_l/activation	glut_max_l/activation	iliopsoas_l/activation	rect_fem_l/activation	  vasti_l/activation	gastroc_l/activation	 soleus_l/activation	tib_ant_l/activation	
          1.10286487	         -4.39429648	         -0.32858015	          7.77604209	          1.34549514	          0.84941973	         -0.01255955	         30.13568072	         -2.02889287	         -3.96355472	         -6.58264315	          3.61167225	          0.26752439	        -14.01925270	         -0.10587323	          3.78430052	         -9.21753985	          8.20124302	         27.67437022	         -9.72143588	         -1.38426774	         -1.52849766	          0.12040127	          0.13023061	          0.01000071	          0.01370702	          0.13709217	          0.06389888	          0.09654261	          0.08115207	          0.02605509	          0.01183800	          0.01000023	          0.01000039	          0.01000016	          0.37719633	          0.12280693	          0.01000015	          0.01000016	          0.03258180	          0.01000193	          0.01776388	          0.13777728	          0.01659037	          0.12506085	          0.01183824	          0.01000237	          0.13121262	          0.28226612	          0.01814207	
          1.11389352	         -4.39681098	         -0.30315180	          7.80499793	          1.36123708	          0.84792338	         -0.01219939	         29.87618475	         -1.81511302	         -3.63133122	         -7.98567727	          3.28638811	          0.25080902	        -14.48469226	         -0.19592108	          3.46854095	        -10.25683331	          7.25873029	         29.22601694	         -9.60678150	         -0.99256258	         -1.74068377	          0.10170663	          0.11463209	          0.01000016	          0.01158190	          0.11580596	          0.06324278	          0.10993772	          0.12977900	          0.02200953	          0.01000037	          0.01000015	          0.01521695	          0.01183822	          0.41002301	          0.13570658	          0.01000006	          0.01000077	          0.02752282	          0.02460366	          0.01503749	          0.11638475	          0.01401443	          0.10564377	          0.01000055	          0.01000011	          0.11083920	          0.26420971	          0.01532515	
          1.12492216	         -4.39348156	         -0.27215436	          7.78685742	          1.37712676	          0.84662564	         -0.01175500	         29.54284981	         -1.65505077	         -3.32234795	         -9.30010479	          2.86911379	          0.24709276	        -14.80876168	         -0.26792993	          3.11320236	        -11.56777104	          6.20724278	         30.71584892	         -9.48610608	         -0.60638476	         -1.94329727	          0.13586251	          0.09683318	          0.01000019	          0.09852271	          0.13364147	          0.05959315	          0.10287251	          0.12910785	          0.01859214	          0.01000016	          0.01000003	          0.01285425	          0.01000012	          0.47268763	          0.14930006	          0.01000005	          0.01000017	          0.02324934	          0.02078367	          0.01342192	          0.09831380	          0.01183851	          0.08924110	          0.01000190	          0.01000035	          0.09362917	          0.24227431	          0.01294561	
          1.13595081	         -4.38594398	         -0.21960548	          7.72621833	          1.39297511	          0.84569409	         -0.01121885	         29.21667354	         -1.51559084	         -3.06892270	        -10.60684555	          2.39642413	          0.22831386	        -14.90956710	         -0.30474375	          2.73316650	        -13.26373687	          5.02271848	         32.08706554	         -9.37976499	         -0.24374767	         -2.13530523	          0.14399389	          0.08179788	          0.01000016	          0.14393283	          0.16006505	          0.05235812	          0.08689969	          0.15328584	          0.01570536	          0.01000029	          0.01000016	          0.01085846	          0.01000010	          0.49965895	          0.18419759	          0.01000006	          0.01000019	          0.01963941	          0.02661916	          0.01499023	          0.08304874	          0.01000068	          0.07538500	          0.01000144	          0.01000042	          0.07909134	          0.21122123	          0.01093555	
